<svg width="500" height="465" viewBox="0 0 500 465" fill="none" xmlns="http://www.w3.org/2000/svg">
<path opacity="0.15" d="M391.728 431.598H0V439.204H391.728V431.598Z" fill="#137ED9"/>
<path opacity="0.05" d="M499.053 49.683H330.839V162.314H499.053V49.683Z" fill="#137ED9"/>
<path opacity="0.2" d="M499.062 162.314C499.062 162.314 499.062 161.611 499.062 160.27V154.328L498.949 131.622C498.949 112.055 498.872 83.921 498.825 49.635L499.062 49.873L330.857 49.93L331.162 49.626C331.162 89.75 331.162 127.905 331.162 162.257L330.886 161.981L452.074 162.114L486.702 162.19H495.916H498.293H499.11H498.33H495.982H486.826L452.264 162.267L330.896 162.4H330.62V162.124C330.62 127.772 330.62 89.617 330.62 49.493V49.189H330.934L499.138 49.246H499.376V49.483C499.319 83.836 499.281 112.017 499.253 131.622L499.11 154.441V160.336C499.082 161.639 499.062 162.314 499.062 162.314Z" fill="#137ED9"/>
<path opacity="0.2" d="M330.839 59.733C330.839 59.562 368.471 59.429 414.87 59.429C461.268 59.429 498.911 59.562 498.911 59.733C498.911 59.904 461.288 60.037 414.87 60.037C368.452 60.037 330.839 59.895 330.839 59.733Z" fill="#137ED9"/>
<path opacity="0.2" d="M336.135 56.016C336.88 56.016 337.485 55.411 337.485 54.665C337.485 53.919 336.88 53.315 336.135 53.315C335.389 53.315 334.784 53.919 334.784 54.665C334.784 55.411 335.389 56.016 336.135 56.016Z" fill="#137ED9"/>
<path opacity="0.2" d="M340.755 56.016C341.501 56.016 342.105 55.411 342.105 54.665C342.105 53.919 341.501 53.315 340.755 53.315C340.01 53.315 339.405 53.919 339.405 54.665C339.405 55.411 340.01 56.016 340.755 56.016Z" fill="#137ED9"/>
<path opacity="0.2" d="M345.309 56.016C346.055 56.016 346.66 55.411 346.66 54.665C346.66 53.919 346.055 53.315 345.309 53.315C344.564 53.315 343.959 53.919 343.959 54.665C343.959 55.411 344.564 56.016 345.309 56.016Z" fill="#137ED9"/>
<path opacity="0.3" d="M390.178 71.475H345.309V116.343H390.178V71.475Z" fill="#137ED9"/>
<path opacity="0.2" d="M475.996 84.159C475.996 84.33 458.492 84.463 436.909 84.463C415.326 84.463 397.822 84.33 397.822 84.159C397.822 83.988 415.316 83.855 436.909 83.855C458.502 83.855 475.996 83.997 475.996 84.159Z" fill="#137ED9"/>
<path opacity="0.2" d="M475.996 92.498C475.996 92.669 458.492 92.802 436.909 92.802C415.326 92.802 397.822 92.669 397.822 92.498C397.822 92.326 415.316 92.193 436.909 92.193C458.502 92.193 475.996 92.336 475.996 92.498Z" fill="#137ED9"/>
<path opacity="0.2" d="M475.996 100.836C475.996 101.007 458.492 101.14 436.909 101.14C415.326 101.14 397.822 101.007 397.822 100.836C397.822 100.665 415.316 100.531 436.909 100.531C458.502 100.531 475.996 100.674 475.996 100.836Z" fill="#137ED9"/>
<path opacity="0.2" d="M444.021 109.174C443.42 109.265 442.813 109.303 442.205 109.288L437.251 109.383C433.068 109.441 427.296 109.469 420.917 109.469C414.537 109.469 408.766 109.469 404.582 109.383L399.628 109.288C399.021 109.303 398.413 109.265 397.813 109.174C398.414 109.084 399.021 109.046 399.628 109.06L404.582 108.965C408.766 108.908 414.537 108.88 420.917 108.88C427.296 108.88 433.068 108.88 437.251 108.965L442.205 109.06C442.813 109.046 443.42 109.084 444.021 109.174Z" fill="#137ED9"/>
<path opacity="0.2" d="M369.203 131.48H348.115V152.569H369.203V131.48Z" fill="#137ED9"/>
<path opacity="0.2" d="M407.444 131.48H386.356V152.569H407.444V131.48Z" fill="#137ED9"/>
<path opacity="0.2" d="M445.685 131.48H424.597V152.569H445.685V131.48Z" fill="#137ED9"/>
<path opacity="0.2" d="M483.936 131.48H462.847V152.569H483.936V131.48Z" fill="#137ED9"/>
<path d="M262.487 41.816C261.924 41.904 261.355 41.942 260.786 41.93L256.098 42.025C252.114 42.082 246.59 42.12 240.315 42.13H240.001V41.816C240.001 40.818 240.001 39.762 240.001 38.688C240.001 31.6995 240.001 25.3767 240.096 20.7844L240.21 15.3648C240.197 14.7002 240.238 14.0356 240.334 13.3777C240.429 14.0356 240.47 14.7002 240.457 15.3648L240.552 20.7939C240.61 25.3767 240.648 31.6995 240.648 38.697C240.648 39.772 240.648 40.827 240.648 41.825L240.334 41.512C246.59 41.512 252.143 41.512 256.117 41.616L260.804 41.711C261.367 41.697 261.93 41.732 262.487 41.816Z" fill="#137ED9"/>
<path d="M240.448 8.1008C240.621 8.1008 240.762 6.2874 240.762 4.0504C240.762 1.8135 240.621 0 240.448 0C240.274 0 240.134 1.8135 240.134 4.0504C240.134 6.2874 240.274 8.1008 240.448 8.1008Z" fill="#137ED9"/>
<path d="M259.842 9.56048C261.402 8.00098 262.567 6.63738 262.444 6.51488C262.322 6.39238 260.958 7.55728 259.399 9.11678C257.839 10.6763 256.675 12.0398 256.797 12.1623C256.919 12.2849 258.283 11.12 259.842 9.56048Z" fill="#137ED9"/>
<path d="M275.294 20.5562C275.371 20.7178 273.84 21.6306 271.967 22.7716C270.093 23.9125 268.572 24.8443 268.468 24.6731C268.363 24.502 269.742 23.361 271.643 22.2106C273.545 21.0602 275.218 20.4041 275.294 20.5562Z" fill="#137ED9"/>
<path d="M277.301 41.711C280.352 41.711 282.825 41.571 282.825 41.398C282.825 41.224 280.352 41.084 277.301 41.084C274.25 41.084 271.776 41.224 271.776 41.398C271.776 41.571 274.25 41.711 277.301 41.711Z" fill="#137ED9"/>
<path d="M200.952 40.979C203.835 40.979 206.172 40.839 206.172 40.666C206.172 40.492 203.835 40.352 200.952 40.352C198.069 40.352 195.732 40.492 195.732 40.666C195.732 40.839 198.069 40.979 200.952 40.979Z" fill="#137ED9"/>
<path d="M207.648 59.764C209.934 57.923 211.699 56.32 211.59 56.186C211.482 56.051 209.54 57.434 207.254 59.275C204.969 61.116 203.203 62.719 203.312 62.853C203.421 62.988 205.362 61.605 207.648 59.764Z" fill="#137ED9"/>
<path d="M224.997 68.181C225.14 68.286 223.828 70.302 222.316 72.84C220.804 75.379 219.625 77.471 219.464 77.395C219.303 77.318 220.234 75.074 221.774 72.517C223.314 69.96 224.836 68.077 224.997 68.181Z" fill="#137ED9"/>
<path d="M240.448 83.651C240.621 83.651 240.762 81.177 240.762 78.127C240.762 75.076 240.621 72.602 240.448 72.602C240.274 72.602 240.134 75.076 240.134 78.127C240.134 81.177 240.274 83.651 240.448 83.651Z" fill="#137ED9"/>
<path d="M264.275 76.292C264.19 76.435 262.022 75.189 259.721 73.173C257.42 71.158 255.917 69.189 256.003 69.085C256.088 68.98 257.847 70.73 260.13 72.707C262.411 74.685 264.379 76.139 264.275 76.292Z" fill="#137ED9"/>
<path d="M275.471 64.252C275.593 64.129 274.152 62.489 272.251 60.588C270.349 58.687 268.709 57.245 268.587 57.368C268.464 57.49 269.906 59.131 271.807 61.031C273.708 62.933 275.349 64.375 275.471 64.252Z" fill="#137ED9"/>
<path d="M211.1 25.7955C211.223 25.673 209.973 24.2251 208.31 22.5617C206.646 20.8982 205.198 19.649 205.076 19.7716C204.954 19.8941 206.203 21.3419 207.866 23.0054C209.53 24.6688 210.977 25.918 211.1 25.7955Z" fill="#137ED9"/>
<path d="M224.892 11.2577C225.014 11.1349 223.789 9.717 222.155 8.0906C220.521 6.4643 219.098 5.2454 218.975 5.3682C218.853 5.491 220.078 6.909 221.712 8.5353C223.346 10.1617 224.769 11.3805 224.892 11.2577Z" fill="#137ED9"/>
<path opacity="0.05" d="M178.769 91.223H34.4473V149.849H178.769V91.223Z" fill="#137ED9"/>
<path opacity="0.3" d="M178.769 149.84C178.769 149.84 178.769 149.478 178.769 148.794V145.752V134.085L178.683 91.213L178.845 91.375L34.5328 91.442L34.7611 91.213C34.7611 111.742 34.7611 131.556 34.7611 149.84L34.5423 149.621L138.018 149.725L168.034 149.783H176.068H176.125H168.139L138.17 149.84L34.5328 149.944H34.3142V149.725C34.3142 131.451 34.3142 111.637 34.3142 91.1V90.871H34.5519L178.864 90.938H179.025V91.1L178.94 134.066C178.94 139.115 178.94 143.032 178.94 145.694V148.709C178.778 149.498 178.769 149.84 178.769 149.84Z" fill="#137ED9"/>
<path opacity="0.3" d="M34.5899 99.124C34.5899 99.001 66.8502 98.896 106.632 98.896C146.413 98.896 178.683 99.001 178.683 99.124C178.683 99.248 146.432 99.353 106.632 99.353C66.8315 99.353 34.5899 99.295 34.5899 99.124Z" fill="#137ED9"/>
<path opacity="0.3" d="M39.591 96.634C40.1687 96.634 40.6369 96.165 40.6369 95.587C40.6369 95.01 40.1687 94.542 39.591 94.542C39.0134 94.542 38.5452 95.01 38.5452 95.587C38.5452 96.165 39.0134 96.634 39.591 96.634Z" fill="#137ED9"/>
<path opacity="0.3" d="M43.1756 96.634C43.7531 96.634 44.2214 96.165 44.2214 95.587C44.2214 95.01 43.7531 94.542 43.1756 94.542C42.5979 94.542 42.1297 95.01 42.1297 95.587C42.1297 96.165 42.5979 96.634 43.1756 96.634Z" fill="#137ED9"/>
<path opacity="0.3" d="M46.7125 96.634C47.2901 96.634 47.7584 96.165 47.7584 95.587C47.7584 95.01 47.2901 94.542 46.7125 94.542C46.1349 94.542 45.6667 95.01 45.6667 95.587C45.6667 96.165 46.1349 96.634 46.7125 96.634Z" fill="#137ED9"/>
<path opacity="0.2" d="M81.5687 108.651H46.7125V143.507H81.5687V108.651Z" fill="#137ED9"/>
<path opacity="0.3" d="M168.833 117.998C168.833 118.121 150.891 118.226 128.776 118.226C106.66 118.226 88.7091 118.121 88.7091 117.998C88.7091 117.874 106.641 117.77 128.776 117.77C150.911 117.77 168.833 117.865 168.833 117.998Z" fill="#137ED9"/>
<path opacity="0.3" d="M168.833 125.1C168.833 125.223 150.891 125.328 128.776 125.328C106.66 125.328 88.7091 125.223 88.7091 125.1C88.7091 124.976 106.641 124.872 128.776 124.872C150.911 124.872 168.833 124.967 168.833 125.1Z" fill="#137ED9"/>
<path opacity="0.3" d="M140.243 132.193C140.068 132.213 139.893 132.213 139.72 132.193H138.217L132.693 132.269L114.457 132.336L96.2204 132.269L90.696 132.193H89.1941C89.02 132.213 88.8446 132.213 88.6711 132.193C88.8446 132.173 89.02 132.173 89.1941 132.193H90.696L96.2204 132.117L114.457 132.051L132.693 132.117L138.217 132.193H139.72C139.893 132.173 140.068 132.173 140.243 132.193Z" fill="#137ED9"/>
<path opacity="0.3" d="M81.1504 49.712H73.382V74.822H81.1504V49.712Z" fill="#137ED9"/>
<path opacity="0.3" d="M95.4594 39.376H87.6917V74.822H95.4594V39.376Z" fill="#137ED9"/>
<path opacity="0.3" d="M110.682 34.546H102.914V74.813H110.682V34.546Z" fill="#137ED9"/>
<path opacity="0.3" d="M125.914 29.4594H118.146V74.822H125.914V29.4594Z" fill="#137ED9"/>
<path opacity="0.3" fill-rule="evenodd" clip-rule="evenodd" d="M458.987 174.665C460.395 175.398 461.7 176.316 462.866 177.394L467.011 175.92L470.909 182.072L467.8 185.19C468.28 186.706 468.555 188.279 468.618 189.868L472.592 191.77L470.995 198.872H466.593C465.857 200.282 464.936 201.586 463.854 202.752L465.328 206.897L459.176 210.795L456.067 207.686C454.552 208.165 452.979 208.441 451.389 208.504L449.488 212.478L442.386 210.881V206.478C440.976 205.743 439.671 204.822 438.507 203.74L434.361 205.214L430.462 199.062L433.572 195.944C433.092 194.428 432.818 192.855 432.754 191.266L428.78 189.364L430.377 182.262H434.779C435.515 180.852 436.435 179.547 437.517 178.383L436.006 174.247L442.157 170.348L445.276 173.458C446.792 172.978 448.365 172.703 449.954 172.64L451.856 168.665L458.958 170.263V174.665H458.987ZM452.721 183.022C451.212 182.684 449.636 182.799 448.194 183.356C446.751 183.912 445.506 184.884 444.616 186.149C443.726 187.413 443.231 188.913 443.193 190.459C443.156 192.004 443.578 193.527 444.406 194.833C445.235 196.139 446.431 197.17 447.845 197.795C449.259 198.421 450.827 198.612 452.351 198.347C453.874 198.081 455.284 197.37 456.402 196.301C457.521 195.234 458.298 193.859 458.635 192.35C459.085 190.328 458.716 188.212 457.607 186.463C456.499 184.713 454.741 183.476 452.721 183.022Z" fill="#635BFF"/>
<g opacity="0.3">
<path opacity="0.3" fill-rule="evenodd" clip-rule="evenodd" d="M382.505 179.115C383.326 179.541 384.087 180.075 384.768 180.702L387.183 179.847L389.455 183.431L387.648 185.247C387.927 186.129 388.087 187.043 388.124 187.966L390.434 189.069L389.484 193.205H386.926C386.5 194.027 385.966 194.788 385.338 195.468L386.194 197.883L382.609 200.155L380.793 198.349C379.912 198.628 378.997 198.788 378.074 198.825L376.971 201.135L372.835 200.184V197.627C372.014 197.2 371.252 196.667 370.572 196.039L368.157 196.895L365.885 193.31L367.691 191.494C367.414 190.612 367.253 189.698 367.216 188.775L364.924 187.719L365.876 183.584H368.433C368.859 182.762 369.393 182.001 370.021 181.32L369.165 178.906L372.749 176.633L374.565 178.439C375.447 178.161 376.361 178.001 377.285 177.964L378.387 175.654L382.524 176.604V179.162L382.505 179.115ZM378.854 183.983C377.977 183.787 377.061 183.855 376.223 184.179C375.384 184.503 374.66 185.068 374.143 185.803C373.627 186.538 373.339 187.41 373.317 188.309C373.296 189.207 373.541 190.092 374.022 190.851C374.504 191.61 375.199 192.21 376.021 192.574C376.843 192.938 377.754 193.049 378.64 192.895C379.525 192.741 380.345 192.328 380.996 191.708C381.646 191.088 382.099 190.289 382.296 189.412C382.56 188.237 382.346 187.005 381.703 185.987C381.059 184.969 380.038 184.248 378.863 183.983H378.854Z" fill="#137ED9"/>
</g>
<path d="M107.763 221.263H285.619C293.367 221.263 300.798 224.34 306.279 229.817C311.759 235.294 314.841 242.723 314.846 250.472V350.115H78.5069V250.472C78.5094 246.633 79.2684 242.832 80.7397 239.286C82.2116 235.74 84.3677 232.519 87.0843 229.807C89.8009 227.095 93.0256 224.944 96.5737 223.478C100.122 222.012 103.924 221.26 107.763 221.263Z" fill="white"/>
<path d="M325.181 281.933H350.434C353.879 281.933 357.183 283.302 359.618 285.737C362.054 288.173 363.422 291.477 363.422 294.921V396.418H313.116V294.009C313.115 292.423 313.426 290.853 314.032 289.388C314.637 287.923 315.526 286.592 316.646 285.471C317.767 284.35 319.097 283.459 320.562 282.853C322.026 282.246 323.596 281.933 325.181 281.933Z" fill="#635BFF"/>
<path d="M43.9076 281.933H67.3827C70.6417 281.931 73.7684 283.222 76.0749 285.524C78.382 287.826 79.681 290.949 79.686 294.208V396.418H32.8689V292.963C32.8689 290.037 34.031 287.232 36.0993 285.164C38.1677 283.096 40.973 281.933 43.8981 281.933H43.9076Z" fill="#635BFF"/>
<path d="M83.0805 335.672H310.377C314.324 335.672 318.108 337.24 320.899 340.031C323.69 342.821 325.258 346.606 325.258 350.552V356.485H68.7041V350.048C68.7041 346.235 70.2191 342.579 72.9151 339.883C75.6111 337.187 79.2678 335.672 83.0805 335.672Z" fill="#635BFF"/>
<path d="M354.57 281.933H339.215C335.51 281.933 331.958 283.405 329.339 286.024C326.72 288.644 325.248 292.196 325.248 295.901V354.726H68.7041V297.061C68.7041 293.026 67.1018 289.157 64.2484 286.303C61.3957 283.451 57.5263 281.848 53.4916 281.848H38.1838C34.4795 281.848 30.927 283.32 28.3076 285.939C25.6883 288.558 24.2167 292.111 24.2167 295.815V420.331C24.2167 420.866 24.4291 421.378 24.8071 421.756C25.1851 422.134 25.6978 422.346 26.2324 422.346H68.7041V396.343H325.248V422.346H367.719C368.254 422.346 368.767 422.134 369.145 421.756C369.523 421.378 369.736 420.866 369.736 420.331V297.061C369.713 293.049 368.107 289.208 365.266 286.376C362.426 283.542 358.582 281.946 354.57 281.933Z" fill="white"/>
<path opacity="0.3" d="M354.57 281.933H339.215C335.51 281.933 331.958 283.405 329.339 286.024C326.72 288.644 325.248 292.196 325.248 295.901V354.726H68.7041V297.061C68.7041 293.026 67.1018 289.157 64.2484 286.303C61.3957 283.451 57.5263 281.848 53.4916 281.848H38.1838C34.4795 281.848 30.927 283.32 28.3076 285.939C25.6883 288.558 24.2167 292.111 24.2167 295.815V420.331C24.2167 420.866 24.4291 421.378 24.8071 421.756C25.1851 422.134 25.6978 422.346 26.2324 422.346H68.7041V396.343H325.248V422.346H367.719C368.254 422.346 368.767 422.134 369.145 421.756C369.523 421.378 369.736 420.866 369.736 420.331V297.061C369.713 293.049 368.107 289.208 365.266 286.376C362.426 283.542 358.582 281.946 354.57 281.933Z" fill="#137ED9"/>
<path opacity="0.3" d="M107.256 209H285.112C292.86 209 300.291 212.077 305.772 217.554C311.252 223.031 314.334 230.46 314.339 238.209V337.852H78V238.209C78.0025 234.37 78.7615 230.569 80.2328 227.023C81.7047 223.477 83.8608 220.256 86.5774 217.544C89.294 214.832 92.5187 212.681 96.0668 211.215C99.6151 209.749 103.417 208.997 107.256 209Z" fill="#137ED9"/>
<path d="M362.804 424.856V422.546H330.449V424.856H326.408V431.798H366.854V424.856H362.804Z" fill="#635BFF"/>
<path d="M62.3533 424.856V422.546H29.988V424.856H25.9471V431.798H66.3939V424.856H62.3533Z" fill="#635BFF"/>
<path d="M278.63 274.023C271.731 260.038 263.918 246.524 255.241 233.567C252.578 229.592 249.707 225.551 245.59 223.108C241.901 220.94 237.537 220.255 233.23 219.846C222.771 218.801 212.189 218.963 201.654 219.124C185.386 219.362 169.014 219.619 153.088 222.927C151.326 223.21 149.621 223.775 148.039 224.601C146.176 225.861 144.58 227.477 143.342 229.355C134.914 240.499 127.59 252.437 121.474 265C118.407 271.16 115.743 277.512 113.497 284.016C111.414 290.224 108.058 296.052 107.716 302.794C107.402 309.231 110.273 316.276 116.159 318.9C123.565 322.2 132.047 317.522 140.147 317.949C140.147 317.16 140.147 316.371 140.147 315.582L154.286 314.403L153.116 335.625L165.477 319.29C166.136 318.043 167.128 317.004 168.344 316.289C169.56 315.574 170.95 315.21 172.36 315.24L222.372 310.78C227.525 310.324 232.707 309.83 237.851 310.4C245.314 311.18 252.379 314.023 259.633 315.925C266.888 317.826 274.846 318.777 281.711 315.782C282.824 315.378 283.832 314.728 284.658 313.88C285.47 312.82 286.019 311.581 286.256 310.267C289.279 297.954 284.202 285.318 278.63 274.023ZM242.728 300.255V277.864L252.151 294.36L242.728 300.255Z" fill="#635BFF"/>
<path d="M154.352 275.506L143.741 294.36L154.352 301.434V275.506Z" fill="white"/>
<path d="M157.889 301.434C157.889 301.434 160.143 286.82 183.313 289.435C183.779 289.489 184.208 289.713 184.519 290.064C184.829 290.415 184.999 290.868 184.996 291.336C184.997 291.831 184.804 292.307 184.46 292.662C184.115 293.017 183.646 293.223 183.151 293.238C179.234 293.238 170.535 293.723 171.447 297.384H187.497C187.928 297.384 188.342 297.555 188.646 297.86C188.952 298.165 189.123 298.579 189.123 299.009V302.756C189.123 303.513 188.822 304.238 188.288 304.773C187.753 305.308 187.027 305.608 186.27 305.608C186.097 305.608 185.929 305.677 185.806 305.8C185.683 305.923 185.614 306.09 185.614 306.264V308.032C185.615 308.315 185.558 308.596 185.444 308.855C185.331 309.113 185.165 309.346 184.955 309.536C184.747 309.727 184.5 309.872 184.233 309.962C183.964 310.052 183.68 310.084 183.399 310.058C179.111 309.659 170.012 309.364 169.137 313.861H160.884C160.884 313.861 159.658 300.864 157.889 301.434Z" fill="#F5B58F"/>
<path d="M237.423 309.088L236.244 302.014C236.244 302.014 232.945 293.21 213.587 295.805C213.011 295.883 212.483 296.167 212.1 296.604C211.718 297.041 211.506 297.602 211.504 298.182V299.656H209.717C209.485 299.656 209.254 299.702 209.04 299.791C208.826 299.88 208.631 300.01 208.467 300.174C208.303 300.338 208.172 300.533 208.083 300.748C207.994 300.963 207.949 301.192 207.949 301.424C207.949 301.657 207.994 301.887 208.083 302.101C208.172 302.316 208.303 302.511 208.467 302.675C208.631 302.84 208.826 302.969 209.04 303.059C209.254 303.147 209.485 303.193 209.717 303.193H219.729V305.551H210.221C209.608 305.551 209.02 305.795 208.587 306.228C208.154 306.661 207.911 307.248 207.911 307.861C207.91 308.173 207.973 308.481 208.095 308.768C208.217 309.055 208.396 309.314 208.62 309.53C208.845 309.746 209.111 309.914 209.402 310.024C209.694 310.134 210.005 310.185 210.316 310.172L237.423 309.088Z" fill="#F5B58F"/>
<path d="M141.973 329.388L135.507 267.501C135.384 266.799 135.414 266.079 135.594 265.391C135.774 264.702 136.102 264.06 136.553 263.509C137.004 262.958 137.57 262.512 138.21 262.2C138.849 261.888 139.55 261.717 140.261 261.7L237.984 259.438C238.707 259.421 239.426 259.562 240.088 259.853C240.751 260.144 241.341 260.577 241.818 261.121C242.295 261.665 242.647 262.307 242.848 263.002C243.05 263.697 243.097 264.428 242.985 265.142L244.336 323.883C244.336 323.883 206.532 326.649 190.064 326.896C190.064 326.906 159.135 334.056 141.973 329.388Z" fill="white"/>
<path opacity="0.2" d="M141.973 329.388L135.507 267.501C135.384 266.799 135.414 266.079 135.594 265.391C135.774 264.702 136.102 264.06 136.553 263.509C137.004 262.958 137.57 262.512 138.21 262.2C138.849 261.888 139.55 261.717 140.261 261.7L237.984 259.438C238.707 259.421 239.426 259.562 240.088 259.853C240.751 260.144 241.341 260.577 241.818 261.121C242.295 261.665 242.647 262.307 242.848 263.002C243.05 263.697 243.097 264.428 242.985 265.142L244.336 323.883C244.336 323.883 206.532 326.649 190.064 326.896C190.064 326.906 159.135 334.056 141.973 329.388Z" fill="#137ED9"/>
<path opacity="0.2" d="M190.387 286.079C194.205 286.079 197.299 284.223 197.299 281.933C197.299 279.644 194.205 277.788 190.387 277.788C186.57 277.788 183.475 279.644 183.475 281.933C183.475 284.223 186.57 286.079 190.387 286.079Z" fill="#137ED9"/>
<path d="M141.393 317.931C141.393 317.931 108.401 320.288 102.505 327.353C96.6099 334.417 103.685 345.028 122.538 339.133C141.393 333.238 146.109 329.711 146.109 329.711L141.393 317.931Z" fill="#000D44"/>
<path d="M186.166 205.984L184.996 222.48C186.213 224.996 188.033 227.174 190.294 228.817C192.555 230.461 195.186 231.521 197.955 231.903L199.562 235.459C199.758 235.894 200.072 236.266 200.467 236.533C200.863 236.8 201.326 236.952 201.803 236.971C202.28 236.989 202.753 236.875 203.168 236.64C203.583 236.405 203.925 236.058 204.155 235.639L206.208 231.893C206.208 231.893 215.84 227.424 216.914 219.057L215.631 202.438L186.166 205.984Z" fill="#F5B58F"/>
<path d="M282.719 315.572H281.607C277.037 311.764 271.277 309.678 265.329 309.678H236.14L154.371 314.431V314.356L140.233 315.534L139.054 339.105H153.192C153.192 339.105 260.423 352.064 266.337 352.064C272.251 352.064 295.754 345.028 282.719 315.572Z" fill="#1B255E"/>
<path d="M177.39 469.734L200.427 465.513C196.425 445.28 194.542 424.695 192.669 404.158L187.916 352.53C187.173 344.372 186.175 335.606 180.737 329.483C179.012 327.561 176.925 326 174.595 324.889C172.264 323.778 169.738 323.139 167.16 323.008C161.664 322.76 156.434 324.91 151.785 327.609C147.136 330.31 145.539 333.362 144.483 338.648C143.589 343.136 144.588 347.757 145.615 352.216C154.733 391.76 165.933 430.78 177.21 469.763L177.39 469.734Z" fill="#1B255E"/>
<path d="M221.516 183.602C221.516 183.602 228.695 189.802 216.763 191.855L215.583 202.456L183.627 201.867L184.683 194.755C184.683 194.755 173.168 201.278 176.705 185.96L177.913 175.359L188.514 164.758L206.19 168.295L221.507 176.547L221.516 183.602Z" fill="#F5B58F"/>
<path d="M183.808 190.648C184.221 189.674 184.453 188.634 184.492 187.577C184.505 187.047 184.375 186.524 184.116 186.062C183.856 185.601 183.477 185.217 183.019 184.953C182.499 184.735 181.935 184.644 181.374 184.686C179.774 184.733 178.209 185.164 176.81 185.941C176.107 186.331 173.397 180.465 173.188 179.856C172.286 177.488 172.004 174.929 172.37 172.421C173.321 168.057 177.608 164.13 181.526 162.39C181.897 159.081 180.879 155.602 182.011 152.464C182.382 151.435 182.97 150.498 183.736 149.717C184.502 148.936 185.427 148.33 186.449 147.939C187.47 147.548 188.564 147.383 189.656 147.453C190.748 147.523 191.811 147.828 192.774 148.347C194.475 149.298 195.798 150.81 197.594 151.513C199.455 152.134 201.474 152.079 203.299 151.361C205.102 150.643 206.866 149.834 208.585 148.936C210.663 147.912 212.927 147.32 215.241 147.197C217.565 147.081 219.849 147.833 221.65 149.307C224.673 151.951 225.11 156.429 225.053 160.441C224.996 164.453 224.749 168.77 226.955 172.135C227.525 172.845 227.984 173.637 228.314 174.484C228.51 175.793 228.27 177.129 227.63 178.287C226.375 181.254 224.778 184.515 221.735 185.551C220.583 185.883 219.385 186.022 218.188 185.96C217.016 186.084 215.841 185.743 214.918 185.009C214.157 184.239 214.033 183.061 213.53 182.1C213.145 181.406 212.563 180.843 211.856 180.482C211.15 180.121 210.352 179.979 209.565 180.075C210.088 182.185 207.768 184.144 205.59 184.097C203.413 184.049 201.512 182.69 199.8 181.33C195.522 177.936 191.49 174.227 187.44 170.539C187.877 175.749 188.314 181.054 187.145 186.141C186.622 188.109 185.681 190.21 183.808 190.648Z" fill="#000D44"/>
<path d="M184.996 194.204C184.996 194.204 186.175 207.163 193.249 198.958C193.249 198.958 202.671 196.6 207.387 200.137C212.103 203.674 216.81 191.884 216.81 191.884C216.81 191.884 217.989 214.275 209.736 216.604C201.483 218.934 190.444 218.04 185.966 209.074C181.488 200.108 184.996 194.204 184.996 194.204Z" fill="#000D44"/>
<g opacity="0.5">
<path opacity="0.5" d="M233.201 209.416C233.191 211.298 232.79 213.156 232.022 214.874C231.861 214.874 232.022 213.6 232.327 212.088C232.631 210.576 233.05 209.369 233.201 209.416Z" fill="#137ED9"/>
<path opacity="0.5" d="M237.214 199.024C236.814 200.86 236.037 202.592 234.932 204.111C234.78 204.054 235.17 202.865 235.807 201.449C236.444 200.032 237.071 198.948 237.214 199.024Z" fill="#137ED9"/>
<path opacity="0.5" d="M243.356 189.735C243.048 190.628 242.563 191.449 241.93 192.15C241.43 192.953 240.786 193.656 240.028 194.223C239.876 194.118 240.523 193.053 241.445 191.808C242.367 190.562 243.233 189.621 243.356 189.735Z" fill="#137ED9"/>
<path opacity="0.5" d="M249.142 183.728C250.203 182.614 250.967 181.62 250.85 181.508C250.732 181.396 249.776 182.208 248.715 183.322C247.653 184.436 246.889 185.43 247.007 185.542C247.125 185.655 248.08 184.843 249.142 183.728Z" fill="#137ED9"/>
<path opacity="0.5" d="M256.948 175.713C258.028 174.617 258.809 173.636 258.694 173.522C258.578 173.408 257.608 174.203 256.528 175.299C255.449 176.395 254.667 177.376 254.783 177.491C254.899 177.605 255.868 176.809 256.948 175.713Z" fill="#137ED9"/>
<path opacity="0.5" d="M264.5 167.498C265.475 166.308 266.165 165.261 266.039 165.157C265.913 165.054 265.02 165.934 264.044 167.124C263.068 168.313 262.379 169.361 262.505 169.464C262.63 169.568 263.524 168.687 264.5 167.498Z" fill="#137ED9"/>
<path opacity="0.5" d="M271.728 155.564C271.627 156.511 271.3 157.42 270.777 158.216C270.064 159.595 269.294 160.603 269.161 160.517C269.378 159.604 269.751 158.736 270.263 157.95C270.613 157.077 271.108 156.27 271.728 155.564Z" fill="#137ED9"/>
<path opacity="0.5" d="M274.437 144.782C274.657 146.667 274.327 148.575 273.487 150.277C273.568 148.412 273.888 146.566 274.437 144.782Z" fill="#137ED9"/>
<path opacity="0.5" d="M273.61 133.705C274.419 135.419 274.716 137.331 274.466 139.21C273.947 137.419 273.66 135.569 273.61 133.705Z" fill="#137ED9"/>
<path opacity="0.5" d="M269.236 123.502C269.37 123.417 270.188 124.387 270.919 125.756C271.45 126.548 271.778 127.459 271.871 128.409C271.258 127.7 270.763 126.898 270.406 126.032C269.885 125.256 269.49 124.403 269.236 123.502Z" fill="#137ED9"/>
<path opacity="0.5" d="M261.45 115.582C262.361 115.862 263.188 116.365 263.855 117.047C265.053 118.045 265.832 119.053 265.757 119.157C265.681 119.262 264.692 118.464 263.522 117.494C262.353 116.524 261.364 115.725 261.45 115.582Z" fill="#137ED9"/>
<path opacity="0.5" d="M251.314 111.057C253.214 111.118 255.052 111.747 256.591 112.863C254.768 112.47 252.996 111.863 251.314 111.057Z" fill="#137ED9"/>
<path opacity="0.5" d="M240.238 110.553C242.016 109.881 243.96 109.778 245.799 110.258C244.895 110.499 243.959 110.599 243.024 110.553C242.1 110.694 241.161 110.694 240.238 110.553Z" fill="#137ED9"/>
<path opacity="0.5" d="M229.95 114.651C229.855 114.527 230.815 113.7 232.194 112.939C232.984 112.397 233.901 112.069 234.856 111.989C234.135 112.582 233.331 113.066 232.469 113.424C231.696 113.958 230.847 114.371 229.95 114.651Z" fill="#137ED9"/>
<path opacity="0.5" d="M222.286 122.675C222.527 121.752 222.999 120.905 223.656 120.213C224.607 118.977 225.557 118.169 225.71 118.311C225.861 118.454 225.053 119.395 224.122 120.603C223.19 121.81 222.429 122.761 222.286 122.675Z" fill="#137ED9"/>
<path opacity="0.5" d="M218.531 133.096C218.351 132.143 218.426 131.159 218.749 130.244C218.883 129.296 219.26 128.398 219.843 127.639C219.806 128.572 219.63 129.495 219.32 130.377C219.193 131.318 218.927 132.234 218.531 133.096Z" fill="#137ED9"/>
<path opacity="0.5" d="M219.862 144.068C219.28 143.308 218.904 142.411 218.768 141.463C218.443 140.549 218.364 139.565 218.54 138.61C218.933 139.458 219.199 140.358 219.329 141.283C219.648 142.179 219.828 143.118 219.862 144.068Z" fill="#137ED9"/>
<path opacity="0.5" d="M225.51 153.624C225.396 153.728 224.464 152.854 223.56 151.589C222.929 150.875 222.481 150.016 222.258 149.089C222.401 149.003 223.133 150.039 224.027 151.247C224.65 151.951 225.151 152.755 225.51 153.624Z" fill="#137ED9"/>
<path opacity="0.5" d="M233.724 161.097C232.821 160.801 231.997 160.3 231.319 159.633C230.112 158.682 229.275 157.731 229.417 157.589C229.56 157.446 230.53 158.216 231.718 159.177C232.907 160.137 233.819 161.011 233.724 161.097Z" fill="#137ED9"/>
<path opacity="0.5" d="M243.394 166.688C243.327 166.83 242.158 166.383 240.779 165.68C239.401 164.976 238.346 164.292 238.421 164.159C240.236 164.647 241.93 165.509 243.394 166.688Z" fill="#137ED9"/>
<path opacity="0.5" d="M254.005 170.063C252.115 170.101 250.251 169.631 248.605 168.703C250.463 168.898 252.283 169.365 254.005 170.092V170.063Z" fill="#137ED9"/>
<path opacity="0.5" d="M265.11 170.605C263.301 171.17 261.369 171.209 259.539 170.719C260.447 170.484 261.389 170.405 262.324 170.481C263.253 170.369 264.195 170.41 265.11 170.605Z" fill="#137ED9"/>
<path opacity="0.5" d="M275.844 167.753C274.317 168.883 272.494 169.544 270.597 169.654C272.259 168.803 274.022 168.164 275.844 167.753Z" fill="#137ED9"/>
<path opacity="0.5" d="M285.143 161.677C285.248 161.791 284.402 162.742 283.166 163.684C282.471 164.336 281.63 164.811 280.713 165.071C280.627 164.938 281.597 164.12 282.804 163.227C284.012 162.333 285.038 161.554 285.143 161.677Z" fill="#137ED9"/>
<path opacity="0.5" d="M292.436 153.234C292.18 154.151 291.71 154.995 291.067 155.697C290.116 156.942 289.165 157.807 289.089 157.703C289.439 156.858 289.927 156.077 290.534 155.392C291.485 154.128 292.265 153.149 292.436 153.234Z" fill="#137ED9"/>
<path opacity="0.5" d="M297.19 143.213C296.982 145.095 296.262 146.884 295.108 148.385C295.553 146.571 296.254 144.83 297.19 143.213Z" fill="#137ED9"/>
<path opacity="0.5" d="M299.396 132.288C299.635 134.164 299.372 136.071 298.635 137.812C298.609 135.943 298.866 134.081 299.396 132.288Z" fill="#137ED9"/>
<path opacity="0.5" d="M299.092 121.164C299.253 121.164 299.481 122.381 299.595 123.921C299.71 125.461 299.681 126.726 299.519 126.726C298.992 124.921 298.847 123.027 299.092 121.164Z" fill="#137ED9"/>
<path opacity="0.5" d="M296.686 110.258C297.54 111.934 298.035 113.771 298.141 115.649C297.288 113.973 296.792 112.137 296.686 110.258Z" fill="#137ED9"/>
<path opacity="0.5" d="M292.436 99.961C293.09 100.645 293.595 101.458 293.919 102.348C294.386 103.17 294.681 104.079 294.784 105.019C294.161 104.31 293.689 103.483 293.396 102.586C292.905 101.783 292.578 100.891 292.436 99.961Z" fill="#137ED9"/>
<path opacity="0.5" d="M289.748 95.045C289.888 94.963 289.371 93.82 288.592 92.493C287.814 91.165 287.069 90.156 286.929 90.238C286.788 90.321 287.306 91.464 288.084 92.791C288.862 94.118 289.607 95.127 289.748 95.045Z" fill="#137ED9"/>
<path opacity="0.5" d="M284.088 85.423C284.231 85.344 283.743 84.189 282.998 82.843C282.253 81.496 281.534 80.469 281.391 80.548C281.248 80.627 281.737 81.782 282.482 83.128C283.227 84.474 283.946 85.502 284.088 85.423Z" fill="#137ED9"/>
<path opacity="0.5" d="M277.033 70.297C278.022 71.886 278.669 73.664 278.935 75.516C278.792 75.583 278.231 74.461 277.689 73.006C277.147 71.551 276.881 70.344 277.033 70.297Z" fill="#137ED9"/>
<path opacity="0.5" d="M275.141 59.362C275.462 60.243 275.63 61.172 275.635 62.11C275.828 63.029 275.859 63.975 275.731 64.905C275.036 63.145 274.833 61.229 275.141 59.362Z" fill="#137ED9"/>
<path opacity="0.5" d="M276.063 48.238C276.158 49.171 276.09 50.114 275.864 51.024C275.82 51.962 275.614 52.885 275.255 53.753C275.022 51.872 275.301 49.963 276.063 48.228V48.238Z" fill="#137ED9"/>
<path opacity="0.5" d="M279.695 37.713C279.552 38.642 279.249 39.539 278.801 40.365C278.527 41.262 278.099 42.105 277.537 42.856C277.774 40.979 278.517 39.201 279.686 37.713H279.695Z" fill="#137ED9"/>
<path opacity="0.5" d="M285.914 28.4807C286.037 28.5849 285.296 29.593 284.364 30.8096C283.432 32.027 282.633 32.977 282.462 32.892C282.736 31.9807 283.221 31.1461 283.879 30.4582C284.829 29.2222 285.781 28.3758 285.914 28.4807Z" fill="#137ED9"/>
</g>
<path d="M176.61 471.531H202.348C202.968 470.317 203.291 468.973 203.291 467.609C203.291 466.246 202.968 464.902 202.348 463.687C200.256 459.285 188.087 453.78 181.317 460.16C178.835 462.499 175.745 467.243 175.745 468.783C175.768 469.763 176.068 470.715 176.61 471.531Z" fill="#000D44"/>
</svg>
