<svg id="visual" viewBox="0 0 900 600" width="900" height="600" xmlns="http://www.w3.org/2000/svg" xmlns:xlink="http://www.w3.org/1999/xlink" version="1.1"><rect x="0" y="0" width="900" height="600" fill="#ffffff"></rect><defs><linearGradient id="grad1_0" x1="33.3%" y1="0%" x2="100%" y2="100%"><stop offset="20%" stop-color="#715df2" stop-opacity="1"></stop><stop offset="80%" stop-color="#715df2" stop-opacity="1"></stop></linearGradient></defs><defs><linearGradient id="grad1_1" x1="33.3%" y1="0%" x2="100%" y2="100%"><stop offset="20%" stop-color="#715df2" stop-opacity="1"></stop><stop offset="80%" stop-color="#a991f8" stop-opacity="1"></stop></linearGradient></defs><defs><linearGradient id="grad1_2" x1="33.3%" y1="0%" x2="100%" y2="100%"><stop offset="20%" stop-color="#d6c7fc" stop-opacity="1"></stop><stop offset="80%" stop-color="#a991f8" stop-opacity="1"></stop></linearGradient></defs><defs><linearGradient id="grad1_3" x1="33.3%" y1="0%" x2="100%" y2="100%"><stop offset="20%" stop-color="#d6c7fc" stop-opacity="1"></stop><stop offset="80%" stop-color="#ffffff" stop-opacity="1"></stop></linearGradient></defs><defs><linearGradient id="grad2_0" x1="0%" y1="0%" x2="66.7%" y2="100%"><stop offset="20%" stop-color="#715df2" stop-opacity="1"></stop><stop offset="80%" stop-color="#715df2" stop-opacity="1"></stop></linearGradient></defs><defs><linearGradient id="grad2_1" x1="0%" y1="0%" x2="66.7%" y2="100%"><stop offset="20%" stop-color="#a991f8" stop-opacity="1"></stop><stop offset="80%" stop-color="#715df2" stop-opacity="1"></stop></linearGradient></defs><defs><linearGradient id="grad2_2" x1="0%" y1="0%" x2="66.7%" y2="100%"><stop offset="20%" stop-color="#a991f8" stop-opacity="1"></stop><stop offset="80%" stop-color="#d6c7fc" stop-opacity="1"></stop></linearGradient></defs><defs><linearGradient id="grad2_3" x1="0%" y1="0%" x2="66.7%" y2="100%"><stop offset="20%" stop-color="#ffffff" stop-opacity="1"></stop><stop offset="80%" stop-color="#d6c7fc" stop-opacity="1"></stop></linearGradient></defs><g transform="translate(900, 0)"><path d="M0 324.5C-57.5 316.4 -115 308.4 -162.2 281C-209.5 253.7 -246.6 207.1 -271.9 157C-297.3 106.9 -310.9 53.5 -324.5 0L0 0Z" fill="#ebe3fe"></path><path d="M0 243.4C-43.1 237.3 -86.2 231.3 -121.7 210.8C-157.1 190.3 -184.9 155.3 -203.9 117.8C-223 80.2 -233.2 40.1 -243.4 0L0 0Z" fill="#c1acfa"></path><path d="M0 162.2C-28.7 158.2 -57.5 154.2 -81.1 140.5C-104.8 126.8 -123.3 103.5 -136 78.5C-148.6 53.5 -155.4 26.7 -162.2 0L0 0Z" fill="#8f77f5"></path><path d="M0 81.1C-14.4 79.1 -28.7 77.1 -40.6 70.3C-52.4 63.4 -61.6 51.8 -68 39.3C-74.3 26.7 -77.7 13.4 -81.1 0L0 0Z" fill="#715df2"></path></g><g transform="translate(0, 600)"><path d="M0 -324.5C54.8 -313.2 109.6 -301.9 159.5 -276.3C209.4 -250.6 254.3 -210.7 281 -162.2C307.7 -113.8 316.1 -56.9 324.5 0L0 0Z" fill="#ebe3fe"></path><path d="M0 -243.4C41.1 -234.9 82.2 -226.4 119.6 -207.2C157 -188 190.8 -158 210.8 -121.7C230.8 -85.4 237.1 -42.7 243.4 0L0 0Z" fill="#c1acfa"></path><path d="M0 -162.2C27.4 -156.6 54.8 -150.9 79.7 -138.1C104.7 -125.3 127.2 -105.3 140.5 -81.1C153.9 -56.9 158.1 -28.5 162.2 0L0 0Z" fill="#8f77f5"></path><path d="M0 -81.1C13.7 -78.3 27.4 -75.5 39.9 -69.1C52.3 -62.7 63.6 -52.7 70.3 -40.6C76.9 -28.5 79 -14.2 81.1 0L0 0Z" fill="#715df2"></path></g></svg>